<svg width="22" height="24" viewBox="0 0 22 24" fill="none" xmlns="http://www.w3.org/2000/svg">
<path d="M7 15.0797H15" stroke="#D36700" stroke-width="2" stroke-linecap="round" stroke-linejoin="round"/>
<path d="M7 11.5601H15" stroke="#D36700" stroke-width="2" stroke-linecap="round" stroke-linejoin="round"/>
<path d="M15 2.75989H20C20.2652 2.75989 20.5196 2.8526 20.7071 3.01763C20.8946 3.18267 21 3.4065 21 3.63989V22.1199C21 22.3533 20.8946 22.5771 20.7071 22.7421C20.5196 22.9072 20.2652 22.9999 20 22.9999H2C1.73478 22.9999 1.48043 22.9072 1.29289 22.7421C1.10536 22.5771 1 22.3533 1 22.1199V3.63989C1 3.4065 1.10536 3.18267 1.29289 3.01763C1.48043 2.8526 1.73478 2.75989 2 2.75989H7" stroke="#D36700" stroke-width="2" stroke-linecap="round" stroke-linejoin="round"/>
<path d="M6 6.28V5.4C6 4.23305 6.52678 3.11389 7.46447 2.28873C8.40215 1.46357 9.67392 1 11 1C12.3261 1 13.5979 1.46357 14.5355 2.28873C15.4732 3.11389 16 4.23305 16 5.4V6.28H6Z" stroke="#D36700" stroke-width="2" stroke-linecap="round" stroke-linejoin="round"/>
</svg>
