<svg width="33" height="32" viewBox="0 0 33 32" fill="none" xmlns="http://www.w3.org/2000/svg">
<g clip-path="url(#clip0_24_2)">
<path d="M13.4961 27.0086V19.0086H19.4961V27.0086H27.4961V15.0086C27.4962 14.8772 27.4704 14.7471 27.4202 14.6257C27.37 14.5044 27.2964 14.394 27.2036 14.3011L17.2036 4.3011C17.1107 4.20812 17.0004 4.13436 16.879 4.08404C16.7576 4.03372 16.6275 4.00781 16.4961 4.00781C16.3647 4.00781 16.2346 4.03372 16.1132 4.08404C15.9918 4.13436 15.8815 4.20812 15.7886 4.3011L5.78859 14.3011C5.69576 14.394 5.62215 14.5044 5.57196 14.6257C5.52177 14.7471 5.49599 14.8772 5.49609 15.0086V27.0086H13.4961Z" stroke="white" stroke-width="2" stroke-linecap="round" stroke-linejoin="round"/>
</g>
<defs>
<clipPath id="clip0_24_2">
<rect width="32" height="32" fill="white" transform="translate(0.496094 0.00854492)"/>
</clipPath>
</defs>
</svg>
